<svg xmlns="http://www.w3.org/2000/svg" viewBox="0 0 512 512">
  <rect width="512" height="512" fill="#004276"/>
  <g fill="#f5f5f5" transform="translate(0, -20)">
    <!-- Lion head -->
    <path d="M256 100c-15 0-25 10-25 25s10 25 25 25 25-10 25-25-10-25-25-25z"/>
    <!-- Lion body -->
    <path d="M256 150c-30 0-50 20-50 50v60c0 30 20 50 50 50s50-20 50-50v-60c0-30-20-50-50-50z"/>
    <!-- Lion arms -->
    <path d="M206 180l-40-20 10-10 30 15zM306 180l40-20-10-10-30 15z"/>
    <!-- Lion legs -->
    <path d="M236 310l-30 40 15 10 25-30zM276 310l30 40-15 10-25-30z"/>
  </g>
  <text x="50%" y="460" font-family="serif" font-size="140" font-weight="bold" fill="#f5f5f5" text-anchor="middle">FTJM</text>
</svg>
